<svg width="24" height="24" viewBox="0 0 24 24" fill="none" xmlns="http://www.w3.org/2000/svg">
<path d="M1.5 6.5C0.671573 6.5 0 5.82843 0 5C0 4.17157 0.671573 3.5 1.5 3.5H22.5C23.3284 3.5 24 4.17157 24 5C24 5.82843 23.3284 6.5 22.5 6.5H1.5Z" fill="white"/>
<path d="M0 12C0 12.8284 0.671573 13.5 1.5 13.5H22.5C23.3284 13.5 24 12.8284 24 12C24 11.1716 23.3284 10.5 22.5 10.5H1.5C0.671573 10.5 0 11.1716 0 12Z" fill="white"/>
<path d="M0 19C0 19.8284 0.671573 20.5 1.5 20.5H22.5C23.3284 20.5 24 19.8284 24 19C24 18.1716 23.3284 17.5 22.5 17.5H1.5C0.671573 17.5 0 18.1716 0 19Z" fill="white"/>
</svg>
