<svg width="24" height="24" viewBox="0 0 24 24" fill="none" xmlns="http://www.w3.org/2000/svg">
<path fill-rule="evenodd" clip-rule="evenodd" d="M15.7399 13.6961C18.1533 10.3096 17.8409 5.5779 14.8028 2.53975C11.4164 -0.846584 5.92608 -0.846583 2.53975 2.53975C-0.846584 5.92608 -0.846584 11.4164 2.53975 14.8028C5.5779 17.8409 10.3096 18.1533 13.6961 15.7399L21.9562 24L24 21.9562L15.7399 13.6961ZM12.7589 4.58358C15.0165 6.84114 15.0165 10.5014 12.7589 12.7589C10.5014 15.0165 6.84114 15.0165 4.58358 12.7589C2.32603 10.5014 2.32603 6.84114 4.58358 4.58358C6.84114 2.32603 10.5014 2.32603 12.7589 4.58358Z" fill="white"/>
</svg>
